<?xml version="1.0" standalone="no"?><!DOCTYPE svg PUBLIC "-//W3C//DTD SVG 1.1//EN" "http://www.w3.org/Graphics/SVG/1.1/DTD/svg11.dtd"><svg class="icon" width="200px" height="200.00px" viewBox="0 0 1024 1024" version="1.1" xmlns="http://www.w3.org/2000/svg"><path d="M96 184.32V704a96 96 0 0 0 96 96h34.24l-56.96 96a64 64 0 1 0 109.44 64l96-160h273.28l96 160a64 64 0 1 0 110.72-64l-56.96-96H832a96 96 0 0 0 96-96V184.32c0-203.2-832-203.2-832 0zM288 672a88 88 0 1 1 88-88A88 88 0 0 1 288 672z m448 0a88 88 0 1 1 88-88A88 88 0 0 1 736 672z m96-256H192V256a64 64 0 0 1 64-64h512a64 64 0 0 1 64 64z" fill="#231F20" /></svg>